<svg xmlns="http://www.w3.org/2000/svg" width="139.887" height="142.615" viewBox="0 0 139.887 142.615">
  <g id="Group_9" data-name="Group 9" transform="translate(0 0)">
    <g id="Group_18" data-name="Group 18" transform="translate(0 0)">
      <g id="Group_17" data-name="Group 17" transform="translate(0 0)">
        <path id="Path_41" data-name="Path 41" d="M-52.713-14.475a61.47,61.47,0,0,0-61.412,61.412,62.046,62.046,0,0,0,8.146,30.64,4.657,4.657,0,0,0,4.136,2.328,5.263,5.263,0,0,0,2.328-.646l10.732-6.076A4.769,4.769,0,0,0-87.1,66.719a4.77,4.77,0,0,0-6.464-1.682l-6.464,3.747a52.87,52.87,0,0,1-4.525-17.2h7.368a4.639,4.639,0,0,0,4.656-4.656,4.639,4.639,0,0,0-4.656-4.656l-7.242.005a50.505,50.505,0,0,1,4.656-17.065l6.333,3.621a5.255,5.255,0,0,0,2.328.646,4.932,4.932,0,0,0,4.136-2.328,4.8,4.8,0,0,0-1.682-6.464l-6.333-3.621a52.418,52.418,0,0,1,12.54-12.54l3.621,6.333a4.658,4.658,0,0,0,4.136,2.328,5.257,5.257,0,0,0,2.328-.646A4.77,4.77,0,0,0-70.682,6.08L-74.3-.254A53.912,53.912,0,0,1-57.238-4.91V2.459a4.639,4.639,0,0,0,4.656,4.656,4.639,4.639,0,0,0,4.656-4.656V-4.91A50.513,50.513,0,0,1-30.86-.254L-34.613,6.08a4.8,4.8,0,0,0,1.682,6.464,5.255,5.255,0,0,0,2.328.646,4.932,4.932,0,0,0,4.136-2.328l3.621-6.333A52.426,52.426,0,0,1-10.3,17.069l-6.333,3.621a4.769,4.769,0,0,0-1.682,6.464,4.659,4.659,0,0,0,4.136,2.328,5.255,5.255,0,0,0,2.328-.646l6.333-3.621A53.911,53.911,0,0,1-.866,42.281H-8.234a4.639,4.639,0,0,0-4.656,4.656,4.639,4.639,0,0,0,4.656,4.656H-1a52.871,52.871,0,0,1-4.525,17.2l-6.464-3.747a4.8,4.8,0,0,0-6.464,1.682,4.8,4.8,0,0,0,1.682,6.464l10.732,6.076A4.833,4.833,0,0,0,.427,77.583,60.99,60.99,0,0,0,8.7,46.811,61.442,61.442,0,0,0-52.713-14.475Z" transform="translate(114.125 14.475)" fill="#fff"/>
        <path id="Path_42" data-name="Path 42" d="M36.334,79.443,23.662,91.21a10.756,10.756,0,0,0-4.136-.778,11.121,11.121,0,1,0,11.121,11.121,14.139,14.139,0,0,0-.515-3.364L42.8,86.3a4.712,4.712,0,1,0-6.469-6.854Z" transform="translate(41.886 -40.141)" fill="#fff"/>
      </g>
    </g>
    <path id="Path_43" data-name="Path 43" d="M892.07,1332.068c.231,6.728,25.648,10.465,25.648,10.465s-76.249,1.5-71.764,20.184,8.97,29.155,8.97,29.155H950.61l-39.62-21.679s-11.961-15.7,13.456-14.951,38.125,0,38.125,0,17.941-11.213,0-23.174-59.056-6.728-59.056-6.728S891.839,1325.34,892.07,1332.068Z" transform="translate(-830.658 -1249.256)" fill="#fff"/>
  </g>
</svg>
