<?xml version="1.0" encoding="UTF-8" standalone="no"?>
<svg
   xmlns:dc="http://purl.org/dc/elements/1.1/"
   xmlns:cc="http://creativecommons.org/ns#"
   xmlns:rdf="http://www.w3.org/1999/02/22-rdf-syntax-ns#"
   xmlns:svg="http://www.w3.org/2000/svg"
   xmlns="http://www.w3.org/2000/svg"
   xmlns:xlink="http://www.w3.org/1999/xlink"
   xmlns:sodipodi="http://sodipodi.sourceforge.net/DTD/sodipodi-0.dtd"
   xmlns:inkscape="http://www.inkscape.org/namespaces/inkscape"
   inkscape:version="1.0 (4035a4f, 2020-05-01)"
   sodipodi:docname="dash-outline.svg"
   id="svg834"
   version="1.1"
   width="4114.9727pt"
   height="1524.9829pt"
   viewBox="0 0 893.16686 893.16683">
  <metadata
     id="metadata840">
    <rdf:RDF>
      <cc:Work
         rdf:about="">
        <dc:format>image/svg+xml</dc:format>
        <dc:type
           rdf:resource="http://purl.org/dc/dcmitype/StillImage" />
        <dc:title />
      </cc:Work>
    </rdf:RDF>
  </metadata>
  <defs
     id="defs838">
    <linearGradient
       id="linearGradient959"
       inkscape:collect="always">
      <stop
         id="stop955"
         offset="0"
         style="stop-color:#501616;stop-opacity:1" />
      <stop
         style="stop-color:#000000;stop-opacity:1"
         offset="0.50569832"
         id="stop961" />
      <stop
         id="stop957"
         offset="1"
         style="stop-color:#501616;stop-opacity:1" />
    </linearGradient>
    <linearGradient
       inkscape:collect="always"
       id="linearGradient4234-5">
      <stop
         style="stop-color:#ffffff;stop-opacity:0.1607717"
         offset="0"
         id="stop4230" />
      <stop
         style="stop-color:#ff24ff;stop-opacity:1"
         offset="1"
         id="stop4232" />
    </linearGradient>
    <linearGradient
       inkscape:collect="always"
       xlink:href="#linearGradient4234-5"
       id="linearGradient4242"
       x1="708.36163"
       y1="131.47902"
       x2="690.46875"
       y2="38.57346"
       gradientUnits="userSpaceOnUse"
       spreadMethod="pad" />
    <linearGradient
       gradientUnits="userSpaceOnUse"
       y2="446.5834"
       x2="1632.1489"
       y1="446.5834"
       x1="-750.58728"
       id="linearGradient948"
       xlink:href="#linearGradient959"
       inkscape:collect="always" />
  </defs>
  <sodipodi:namedview
     viewbox-width="900"
     inkscape:showpageshadow="false"
     showborder="true"
     units="pt"
     lock-margins="true"
     fit-margin-bottom="0"
     fit-margin-right="0"
     fit-margin-left="0"
     fit-margin-top="0"
     inkscape:current-layer="svg834"
     inkscape:window-maximized="0"
     inkscape:window-y="140"
     inkscape:window-x="1878"
     inkscape:cy="1079.4194"
     inkscape:cx="2344.4558"
     inkscape:zoom="0.3632722"
     showgrid="false"
     id="namedview836"
     inkscape:window-height="1232"
     inkscape:window-width="3146"
     inkscape:pageshadow="2"
     inkscape:pageopacity="0"
     guidetolerance="10"
     gridtolerance="10"
     objecttolerance="10"
     borderopacity="1"
     bordercolor="#666666"
     pagecolor="#ffffff"
     inkscape:document-rotation="0" />
  <path
     id="Path_48"
     style="fill:url(#linearGradient948);fill-opacity:1.0;stroke-width:0.427169;fill-rule:nonzero"
     d="m 438.07007,5.0699038 v 0.020182 c -55.01224,0.230244 -663.50353,4.3673002 -859.69881,75.2910452 -122.43819,46.830719 -134.20153,52.660939 -166.13234,126.711689 -31.93082,74.05078 -156.5722,534.97249 -156.5722,534.97249 0,0 -38.23292,82.79653 74.36499,95.04099 112.59792,12.24455 425.7426,42.12768 504.16862,43.29365 77.654151,1.15458 593.61821,7.50345 603.87139,7.62965 v 0.0673 c 0,0 2.68315,-0.0338 2.70869,-0.0338 0.0253,3.4e-4 2.70948,0.0338 2.70948,0.0338 v -0.0673 c 10.25318,-0.12597 526.21645,-6.47507 603.87051,-7.62965 78.4262,-1.16597 391.5716,-31.0491 504.1697,-43.29365 112.5978,-12.24446 74.3648,-95.04099 74.3648,-95.04099 0,0 -124.6421,-460.92171 -156.5729,-534.97249 C 1437.3911,133.04208 1425.6278,127.21186 1303.1897,80.381145 1106.9943,9.4574009 498.50311,5.3204123 443.49077,5.0901681 v -0.020182 c 0,0 -2.04272,0.00673 -2.71036,0.013447 -0.66751,-0.00182 -2.71034,-0.013447 -2.71034,-0.013447 z" />
  <g
     id="g2183">
    <path
       id="Path_6"
       data-name="Path 6"
       d="m -484.15054,828.13961 -188.31872,-20.7896 c 0,0 -63.7759,-5.6275 -26.26072,-120.04824 37.51519,-114.42079 74.09253,-214.7758 74.09253,-214.7758"
       fill="none"
       stroke="#ffffff"
       stroke-width="1.3178"
       opacity="0.1" />
    <path
       id="Path_7"
       data-name="Path 7"
       d="m -453.83104,810.72751 -188.63172,-20.76403 c 0,0 -63.8819,-5.62057 -26.30437,-119.90055 37.57754,-114.28002 74.21568,-214.51157 74.21568,-214.51157"
       fill="none"
       stroke="#ffffff"
       stroke-width="1.31808"
       opacity="0.03" />
  </g>
  <g
     id="g2189"
     transform="matrix(-1,0,0,1,876.15785,0)">
    <path
       opacity="0.1"
       stroke-width="1.3178"
       stroke="#ffffff"
       fill="none"
       d="m -484.15054,828.13961 -188.31872,-20.7896 c 0,0 -63.7759,-5.6275 -26.26072,-120.04824 37.51519,-114.42079 74.09253,-214.7758 74.09253,-214.7758"
       data-name="Path 6"
       id="path2185" />
    <path
       opacity="0.03"
       stroke-width="1.31808"
       stroke="#ffffff"
       fill="none"
       d="m -453.83104,810.72751 -188.63172,-20.76403 c 0,0 -63.8819,-5.62057 -26.30437,-119.90055 37.57754,-114.28002 74.21568,-214.51157 74.21568,-214.51157"
       data-name="Path 7"
       id="path2187" />
  </g>
  <path
     fill="#22233f"
     d="m -507.43206,848.1444 c -0.3075,0.67427 131.3036,-56.27278 131.3036,-56.27278 l 512.22957,5.77153 90.18158,86.57388 c 0,0 -452.33374,3.23256 -733.71475,-36.07263 z"
     data-name="Path 5"
     id="Path_5"
     style="stroke-width:0.439267;fill:#000000" />
  <g
     opacity="0.2"
     data-name="Group 3"
     id="Group_3-9"
     transform="matrix(0.4392673,0,0,0.4392673,644.10769,736.38505)"
     style="mix-blend-mode:normal;fill:url(#linearGradient4242);fill-opacity:1;opacity:1;stroke:none" />
  <path
     fill="#22233f"
     d="m 1364.911,849.45753 c 0.3074,0.67428 -131.3036,-56.27277 -131.3036,-56.27277 l -512.22962,5.77153 -90.18158,86.57387 c 0,0 452.3337,3.23257 733.7148,-36.07263 z"
     data-name="Path 1"
     id="Path_1-7"
     style="stroke-width:0.439267;fill:#000000" />
  <g
     data-name="Group 14"
     id="Group_14"
     transform="matrix(0.4392673,0,0,0.4392673,730.71872,810.69074)">
    <path
       fill="#ffffff"
       transform="translate(89.138,48.765)"
       d="m -2.978,-48.765 -5.841,5.129 13.673,15.665 A 14.582,14.582 0 0 0 -8.819,-11.739 14.953,14.953 0 0 0 3.569,1.078 14.048,14.048 0 0 0 13.254,-1.058 V 54.2 c 0,3.56 -2.565,6.976 -6.264,7.265 A 6.8,6.8 0 0 1 -0.559,54.488 V 29.844 a 13.066,13.066 0 0 0 -13.1,-13.1 h -3.416 v -44.86 a 18.567,18.567 0 0 0 -18.513,-18.513 h -35.037 a 18.567,18.567 0 0 0 -18.513,18.513 v 100.4 a 11.43,11.43 0 0 0 11.393,11.393 h 49.561 A 11.429,11.429 0 0 0 -16.791,72.284 V 24.431 h 3.416 a 5.408,5.408 0 0 1 5.413,5.413 v 24.065 c 0,7.833 5.841,14.67 13.529,15.1 A 14.712,14.712 0 0 0 21.232,54.339 V -14.443 A 18.089,18.089 0 0 0 16.675,-26.4 Z M 5.994,-6.47 a 6.987,6.987 0 0 1 -6.976,-6.976 6.987,6.987 0 0 1 6.976,-6.976 6.987,6.987 0 0 1 6.976,6.976 7.177,7.177 0 0 1 -6.976,6.976 z m -34.461,4.845 H -76.321 V -24.7 a 6.08,6.08 0 0 1 6.121,-6.125 h 35.319 a 6.079,6.079 0 0 1 6.129,6.125 v 23.069 z"
       data-name="Path 40"
       id="Path_40" />
  </g>
  <path
     style="stroke-width:0.439267"
     fill="#ffffff"
     d="m 726.79331,825.76466 -14.03283,12.81255 14.03283,12.81299 z"
     data-name="Icon ionic-md-arrow-dropleft"
     id="Icon_ionic-md-arrow-dropleft" />
  <g
     data-name="Group 25"
     id="Group_25"
     transform="matrix(0.4392673,0,0,0.4392673,75.855591,811.7852)">
    <path
       fill="#ffffff"
       transform="translate(49.531,47.52)"
       d="M 17.435,60.857 A 13.379,13.379 0 0 0 30.682,47.244 c 0,-4.853 -1.679,-9.142 -6.9,-11.568 v -3.732 h 24.251 c 2.61,0 4.853,-1.3 4.853,-4.1 0,-2.8 -2.236,-4.105 -4.853,-4.105 H 23.783 V 10.3 h 24.25 c 2.61,0 4.853,-1.3 4.853,-4.1 0,-2.61 -2.236,-4.105 -4.853,-4.105 h -24.25 v -13.43 h 24.25 c 2.61,0 4.853,-2.61 4.853,-5.41 0,-2.61 -2.236,-5.41 -4.853,-5.41 h -24.25 v -18.093 c 0,-4.105 -2.61,-7.272 -6.715,-7.272 -4.105,0 -6.905,3.547 -6.905,7.653 V 35.3 c -5.41,2.427 -6.715,6.715 -6.715,11.568 0.374,7.83 6.525,13.987 13.987,13.987 z"
       data-name="Path 49"
       id="Path_49" />
    <path
       fill="#ffffff"
       transform="translate(113.95,-89.475)"
       d="m 14.2,202.141 c -7.272,0 -11,3.732 -13.987,6.715 -2.428,2.426 -3.733,3.544 -6.533,3.544 -2.61,0 -4.105,-1.122 -6.531,-3.541 -2.61,-2.983 -6.715,-6.715 -13.987,-6.715 -7.272,0 -11,3.732 -13.987,6.715 -2.427,2.427 -3.732,3.541 -6.531,3.541 -2.799,0 -4.105,-1.122 -6.531,-3.541 -2.61,-2.983 -6.715,-6.715 -13.987,-6.715 -7.272,0 -11,3.732 -13.987,6.715 -2.427,2.427 -3.732,3.541 -6.532,3.541 -2.61,0 -4.1,-1.122 -6.531,-3.541 -2.61,-2.983 -6.715,-6.715 -13.987,-6.715 a 5.015,5.015 0 0 0 -5.036,5.036 5.014,5.014 0 0 0 5.036,5.036 c 2.61,0 4.105,1.121 6.531,3.541 2.61,2.984 6.715,6.715 13.987,6.715 7.272,0 11,-3.731 13.988,-6.715 2.426,-2.426 3.731,-3.541 6.531,-3.541 2.61,0 4.1,1.121 6.531,3.541 2.61,2.984 6.715,6.715 13.987,6.715 7.272,0 11,-3.731 13.987,-6.715 2.426,-2.426 3.731,-3.541 6.531,-3.541 2.61,0 4.1,1.121 6.531,3.541 2.61,2.984 6.715,6.715 13.987,6.715 7.272,0 11,-3.731 13.987,-6.715 2.426,-2.426 3.731,-3.541 6.531,-3.541 a 5.014,5.014 0 0 0 5.036,-5.036 c 0.374,-2.61 -2.053,-5.036 -5.036,-5.036 z"
       data-name="Path 50"
       id="Path_50" />
    <path
       fill="#ffffff"
       transform="translate(111.885,-57.665)"
       d="m -102.743,156.9 c 2.427,-1.3 9.889,-4.1 14.735,-1.3 a 33.693,33.693 0 0 0 16.6,4.853 39.192,39.192 0 0 0 6.531,-0.748 21.925,21.925 0 0 1 -1.305,-7.272 17.374,17.374 0 0 1 0.184,-3.174 3.218,3.218 0 0 0 -1.305,0.184 c -0.184,0 -6.715,2.236 -15.292,-2.61 -10.256,-6.158 -23.319,0.184 -24.807,1.121 a 5.232,5.232 0 0 0 -2.236,6.9 4.989,4.989 0 0 0 6.892,2.053 z"
       data-name="Path 51"
       id="Path_51" />
    <path
       fill="#ffffff"
       transform="translate(7.797,-60.443)"
       d="m 123.893,152.964 c -14.177,-5.41 -18.466,-4.1 -25.556,-1.3 -1.121,0.557 -2.426,0.747 -3.731,1.3 -6.158,2.236 -9.889,0.557 -10.256,0.184 a 5.945,5.945 0 0 0 -3.541,-0.557 v 2.236 A 22.825,22.825 0 0 1 79.5,162.1 c 0.748,0.557 4.105,1.862 8.951,1.862 a 22.175,22.175 0 0 0 9.142,-1.679 c 1.679,-0.557 2.983,-1.121 4.288,-1.679 5.036,-1.862 6.9,-2.61 18.092,1.679 a 5.081,5.081 0 0 0 6.715,-2.983 c 1.305,-2.23 0,-5.214 -2.8,-6.335 z"
       data-name="Path 52"
       id="Path_52" />
  </g>
</svg>
