<?xml version="1.0" encoding="UTF-8" standalone="no"?>
<svg
   xmlns:dc="http://purl.org/dc/elements/1.1/"
   xmlns:cc="http://creativecommons.org/ns#"
   xmlns:rdf="http://www.w3.org/1999/02/22-rdf-syntax-ns#"
   xmlns:svg="http://www.w3.org/2000/svg"
   xmlns="http://www.w3.org/2000/svg"
   xmlns:sodipodi="http://sodipodi.sourceforge.net/DTD/sodipodi-0.dtd"
   xmlns:inkscape="http://www.inkscape.org/namespaces/inkscape"
   inkscape:version="1.0 (4035a4f, 2020-05-01)"
   sodipodi:docname="headlights.svg"
   xml:space="preserve"
   style="enable-background:new 0 0 211.398 211.398;"
   viewBox="0 0 211.398 211.398"
   y="0px"
   x="0px"
   id="Capa_1"
   version="1.1"><metadata
   id="metadata1034"><rdf:RDF><cc:Work
       rdf:about=""><dc:format>image/svg+xml</dc:format><dc:type
         rdf:resource="http://purl.org/dc/dcmitype/StillImage" /><dc:title></dc:title></cc:Work></rdf:RDF></metadata><defs
   id="defs1032" /><sodipodi:namedview
   inkscape:current-layer="Capa_1"
   inkscape:window-maximized="0"
   inkscape:window-y="23"
   inkscape:window-x="0"
   inkscape:cy="105.699"
   inkscape:cx="105.699"
   inkscape:zoom="3.3680546"
   showgrid="false"
   id="namedview1030"
   inkscape:window-height="1013"
   inkscape:window-width="1408"
   inkscape:pageshadow="2"
   inkscape:pageopacity="0"
   guidetolerance="10"
   gridtolerance="10"
   objecttolerance="10"
   borderopacity="1"
   bordercolor="#666666"
   pagecolor="#ffffff" />
<g
   style="fill:#ffffff"
   id="g997">
	<path
   style="fill:#ffffff"
   id="path985"
   d="M182.325,56.618c-16.482-12.067-37.006-19.272-54.901-19.272c-18.011,0-31.322,7.262-39.563,21.583   c-6.457,11.221-9.597,26.52-9.597,46.771c0,20.25,3.139,35.549,9.597,46.771c8.242,14.321,21.553,21.583,39.563,21.583   c17.895,0,38.419-7.205,54.901-19.272c18.748-13.727,29.073-31.158,29.073-49.081C211.398,87.775,201.073,70.345,182.325,56.618z    M173.464,142.677c-13.795,10.101-31.437,16.375-46.04,16.375c-15.904,0-34.16-6.064-34.16-53.353s18.256-53.354,34.16-53.354   c14.604,0,32.245,6.274,46.04,16.375c14.575,10.671,22.935,24.149,22.935,36.979C196.398,118.528,188.039,132.006,173.464,142.677z   " />
	<path
   style="fill:#ffffff"
   id="path987"
   d="M64.055,44.945L7.5,44.944c-4.142,0-7.5,3.358-7.5,7.5s3.358,7.5,7.5,7.5l56.555,0.001c4.142,0,7.5-3.358,7.5-7.5   S68.197,44.945,64.055,44.945z" />
	
	<path
   style="fill:#ffffff"
   id="path991"
   d="M64.055,99.653H7.5c-4.142,0-7.5,3.358-7.5,7.5c0,4.142,3.358,7.5,7.5,7.5h56.555c4.142,0,7.5-3.358,7.5-7.5   C71.555,103.011,68.197,99.653,64.055,99.653z" />
	
	<path
   style="fill:#ffffff"
   id="path995"
   d="M64.055,154.362H7.5c-4.142,0-7.5,3.358-7.5,7.5c0,4.142,3.358,7.5,7.5,7.5h56.555c4.142,0,7.5-3.358,7.5-7.5   C71.555,157.72,68.197,154.362,64.055,154.362z" />
</g>
<g
   style="fill:#ffffff"
   id="g999">
</g>
<g
   style="fill:#ffffff"
   id="g1001">
</g>
<g
   style="fill:#ffffff"
   id="g1003">
</g>
<g
   style="fill:#ffffff"
   id="g1005">
</g>
<g
   style="fill:#ffffff"
   id="g1007">
</g>
<g
   style="fill:#ffffff"
   id="g1009">
</g>
<g
   style="fill:#ffffff"
   id="g1011">
</g>
<g
   style="fill:#ffffff"
   id="g1013">
</g>
<g
   style="fill:#ffffff"
   id="g1015">
</g>
<g
   style="fill:#ffffff"
   id="g1017">
</g>
<g
   style="fill:#ffffff"
   id="g1019">
</g>
<g
   style="fill:#ffffff"
   id="g1021">
</g>
<g
   style="fill:#ffffff"
   id="g1023">
</g>
<g
   style="fill:#ffffff"
   id="g1025">
</g>
<g
   style="fill:#ffffff"
   id="g1027">
</g>
</svg>
