<svg xmlns="http://www.w3.org/2000/svg" width="97.004" height="97.004" viewBox="0 0 97.004 97.004">
  <g id="Group_9" data-name="Group 9" transform="translate(0 0)">
    <path id="Path_30" data-name="Path 30" d="M-63.34-27.424a7.132,7.132,0,0,1,6.816-5.259c3.128.017,5.153,2.4,4.517,5.322a7.137,7.137,0,0,1-6.816,5.254C-61.955-22.123-63.976-24.5-63.34-27.424Zm10.7,47.748c-5.6,3.221-10.542,3.751-9.347-1.764l6.3-28.988c1.259-5.789-5.532-7.254-11.624-4.164A38.523,38.523,0,0,0-78.753-5.367a.561.561,0,0,0,0,.72.562.562,0,0,0,.707.135c5.6-3.221,10.543-3.751,9.347,1.764L-75.01,26.24c-1.259,5.789,5.532,7.254,11.624,4.164a38.523,38.523,0,0,0,11.443-9.225.555.555,0,0,0,0-.72.557.557,0,0,0-.708-.135Zm35.8-20.672a48.515,48.515,0,0,1-14.206,34.3,48.518,48.518,0,0,1-34.3,14.206,48.517,48.517,0,0,1-34.3-14.206A48.518,48.518,0,0,1-113.85-.348a48.516,48.516,0,0,1,14.206-34.3,48.518,48.518,0,0,1,34.3-14.206,48.516,48.516,0,0,1,34.3,14.206A48.518,48.518,0,0,1-16.846-.348Zm-5.389,0A43.123,43.123,0,0,0-34.862-30.834,43.124,43.124,0,0,0-65.348-43.461,43.123,43.123,0,0,0-95.834-30.834,43.124,43.124,0,0,0-108.461-.348,43.123,43.123,0,0,0-95.834,30.138,43.124,43.124,0,0,0-65.348,42.764a43.152,43.152,0,0,0,30.47-12.643A43.144,43.144,0,0,0-22.236-.348Z" transform="translate(113.85 48.85)" fill="#fff"/>
  </g>
</svg>
