<svg xmlns="http://www.w3.org/2000/svg" width="130.387" height="77.53" viewBox="0 0 130.387 77.53">
  <g id="Group_61" data-name="Group 61" transform="translate(95.983 -3.46)">
    <g id="Group_59" data-name="Group 59" transform="translate(-95.983 3.46)">
      <path id="Path_55" data-name="Path 55" d="M-69.306,74.911v.056l5.842-5.842h-7.618l5.842,5.842a52.592,52.592,0,0,1,.458-6.973c-.07.514-.14,1.038-.211,1.552a51.913,51.913,0,0,1,3.576-13.1c-.2.467-.4.935-.584,1.393a52.186,52.186,0,0,1,6.707-11.451c-.3.4-.607.785-.911,1.178a52.074,52.074,0,0,1,9.2-9.2c-.4.3-.785.608-1.178.912a52.369,52.369,0,0,1,11.451-6.707c-.467.2-.935.4-1.393.584a51.434,51.434,0,0,1,13.1-3.575l-1.552.21a52.734,52.734,0,0,1,13.834,0l-1.552-.21a52.051,52.051,0,0,1,13.1,3.575c-.467-.2-.935-.4-1.393-.584A52.165,52.165,0,0,1,8.851,39.284c-.4-.3-.785-.608-1.178-.912a52.581,52.581,0,0,1,9.2,9.2c-.3-.4-.608-.785-.912-1.178a52.369,52.369,0,0,1,6.707,11.451c-.2-.467-.4-.935-.584-1.393a51.437,51.437,0,0,1,3.575,13.1c-.07-.514-.14-1.038-.21-1.552a53.559,53.559,0,0,1,.458,6.973l5.842-5.842H24.013l5.842,5.842v-.056a6.078,6.078,0,0,0-1.706-4.136,5.867,5.867,0,0,0-8.273,0,6.06,6.06,0,0,0-1.706,4.136v.056a5.927,5.927,0,0,0,5.842,5.842h7.735a5.927,5.927,0,0,0,5.842-5.842,57.1,57.1,0,0,0-10.245-32.73,60.783,60.783,0,0,0-5.758-7.048,59.516,59.516,0,0,0-6.908-6.053,56.759,56.759,0,0,0-15-8.123,56.423,56.423,0,0,0-17.386-3.328,56.955,56.955,0,0,0-17.6,2.126A57.027,57.027,0,0,0-63.558,38.181a62.5,62.5,0,0,0-5.4,7.572,62.676,62.676,0,0,0-4,8.268,56.2,56.2,0,0,0-3.832,17.2c-.094,1.252-.131,2.486-.131,3.739A5.927,5.927,0,0,0-71.074,80.8h7.618a5.927,5.927,0,0,0,5.842-5.842V74.9a6.079,6.079,0,0,0-1.706-4.136,5.907,5.907,0,0,0-4.136-1.706,5.956,5.956,0,0,0-4.136,1.706,6.069,6.069,0,0,0-1.715,4.146Z" transform="translate(92.797 -5.842)" fill="#fff"/>
      <path id="Path_56" data-name="Path 56" d="M22.414,3.8A12.873,12.873,0,0,0,15.833.25a14.058,14.058,0,0,0-4.44-.131,13.8,13.8,0,0,0-4.3,1.318A12.27,12.27,0,0,0,4.046,3.611,12.772,12.772,0,0,0,1.733,6.565,12.56,12.56,0,0,0,.368,10.023a12.431,12.431,0,0,0-.327,3.786,18.521,18.521,0,0,0,.383,2.571,15.46,15.46,0,0,0,.935,2.44,12.693,12.693,0,0,0,2.08,3.094,12.6,12.6,0,0,0,2.874,2.393,12.49,12.49,0,0,0,3.5,1.486,12.594,12.594,0,0,0,3.739.421,12.94,12.94,0,0,0,3.832-.7,16.505,16.505,0,0,0,2.3-1.014,15.338,15.338,0,0,0,2.08-1.519,13.367,13.367,0,0,0,2.393-2.734,7.568,7.568,0,0,0,.711-1.253,16.063,16.063,0,0,0,.981-2.524,12.6,12.6,0,0,0,.411-4.057,17.2,17.2,0,0,0-.421-2.757,16.094,16.094,0,0,0-.991-2.524A12.975,12.975,0,0,0,22.414,3.8a5.867,5.867,0,0,0-8.273,0,5.9,5.9,0,0,0-1.706,4.136,6.216,6.216,0,0,0,1.706,4.136c.21.224.411.444.594.678-.3-.4-.608-.785-.912-1.178a8.086,8.086,0,0,1,1,1.73c-.2-.467-.4-.935-.584-1.393a8,8,0,0,1,.477,1.8c-.07-.514-.14-1.038-.21-1.552a7.873,7.873,0,0,1-.01,1.963c.07-.514.14-1.037.211-1.552a7.809,7.809,0,0,1-.477,1.776c.2-.467.4-.935.584-1.393a7.845,7.845,0,0,1-.991,1.706c.3-.4.608-.785.912-1.178a8.2,8.2,0,0,1-1.271,1.271c.4-.3.785-.608,1.178-.912a8.257,8.257,0,0,1-1.72,1c.467-.2.935-.4,1.393-.584a7.947,7.947,0,0,1-1.786.477l1.552-.21a7.393,7.393,0,0,1-1.926,0l1.552.21a8.061,8.061,0,0,1-1.8-.477c.467.2.935.4,1.393.584a7.733,7.733,0,0,1-1.73-1c.4.3.785.607,1.178.912a8.166,8.166,0,0,1-1.271-1.271c.3.4.607.785.911,1.178a7.269,7.269,0,0,1-.991-1.706c.2.467.4.935.584,1.393a7.834,7.834,0,0,1-.477-1.776c.07.514.14,1.038.21,1.552a8.118,8.118,0,0,1-.009-1.963c-.07.514-.14,1.037-.211,1.552a8.061,8.061,0,0,1,.477-1.8c-.2.467-.4.935-.584,1.393a7.733,7.733,0,0,1,1-1.73c-.3.4-.607.785-.911,1.178a7.787,7.787,0,0,1,1.271-1.271c-.4.3-.785.607-1.178.911a8.107,8.107,0,0,1,1.729-1c-.467.2-.935.4-1.393.584a8,8,0,0,1,1.8-.477l-1.552.211a8.027,8.027,0,0,1,1.925,0L12.539,11.5a7.759,7.759,0,0,1,1.785.477c-.467-.2-.935-.4-1.393-.584a7.464,7.464,0,0,1,1.72,1c-.4-.3-.785-.607-1.178-.911.234.187.458.383.678.594a6.06,6.06,0,0,0,4.136,1.706,5.956,5.956,0,0,0,4.136-1.706,5.9,5.9,0,0,0,1.706-4.136A6.043,6.043,0,0,0,22.414,3.8Z" transform="matrix(0.588, -0.809, 0.809, 0.588, 54.472, 62.114)" fill="#fff"/>
      <path id="Path_57" data-name="Path 57" d="M68.834,32.374v-8.9a6.078,6.078,0,0,0-1.706-4.136,5.867,5.867,0,0,0-8.273,0A6.06,6.06,0,0,0,57.15,23.47v8.9a6.078,6.078,0,0,0,1.706,4.136,5.868,5.868,0,0,0,8.273,0A6.1,6.1,0,0,0,68.834,32.374Z" transform="translate(10.143 -5.827)" fill="#fff"/>
      <path id="Path_58" data-name="Path 58" d="M-22.463,63.92l-5.272-5.272a6,6,0,0,0-4.136-1.706,5.955,5.955,0,0,0-4.136,1.706,5.9,5.9,0,0,0-1.706,4.136,6.129,6.129,0,0,0,1.706,4.136l5.272,5.272A6,6,0,0,0-26.6,73.9a5.954,5.954,0,0,0,4.136-1.706,5.9,5.9,0,0,0,1.706-4.136A6,6,0,0,0-22.463,63.92Z" transform="translate(68.631 -30.068)" fill="#fff"/>
      <path id="Path_59" data-name="Path 59" d="M145.175,58.654q-2.629,2.629-5.272,5.272a5.868,5.868,0,0,0,0,8.273,5.9,5.9,0,0,0,4.136,1.706,6.131,6.131,0,0,0,4.136-1.706q2.629-2.629,5.272-5.272a5.867,5.867,0,0,0,0-8.273,5.9,5.9,0,0,0-4.136-1.706A6,6,0,0,0,145.175,58.654Z" transform="translate(-39.823 -30.068)" fill="#fff"/>
      <path id="Path_60" data-name="Path 60" d="M11.684,76.942V17.616A43.272,43.272,0,0,0,9.978,5.154C8.964,2.1,7.305-.2,5.842.013c-1.5.211-3.075,1.69-4.136,5.14A43.131,43.131,0,0,0,0,17.616V76.942A43.278,43.278,0,0,0,1.706,89.4c1.014,3.056,2.674,5.351,4.136,5.139,1.5-.21,3.075-1.689,4.136-5.139A43.308,43.308,0,0,0,11.684,76.942Z" transform="matrix(0.588, -0.809, 0.809, 0.588, 0, 13.306)" fill="#fff"/>
      <rect id="Rectangle_76" data-name="Rectangle 76" width="38.313" height="14.992" rx="7.496" transform="matrix(0.559, -0.829, 0.829, 0.559, 2.286, 31.763)" fill="#fff"/>
    </g>
  </g>
</svg>
